<svg xmlns="http://www.w3.org/2000/svg" xmlns:xlink="http://www.w3.org/1999/xlink" viewBox="0 0 2501.61 3533.13"><defs><style>.cls-1,.cls-12,.cls-16{fill:none;}.cls-2{isolation:isolate;}.cls-3{clip-path:url(#clip-path);}.cls-4{fill:url(#linear-gradient);}.cls-5{fill:#6a2327;}.cls-6{fill:#f77952;}.cls-7{fill:url(#linear-gradient-2);}.cls-8{fill:#3b1c22;}.cls-9{clip-path:url(#clip-path-2);}.cls-10{fill:url(#linear-gradient-3);}.cls-11{fill:url(#linear-gradient-4);}.cls-12,.cls-16{stroke:#fff;stroke-miterlimit:10;}.cls-12{stroke-width:5.74px;}.cls-13{clip-path:url(#clip-path-3);}.cls-14{fill:url(#linear-gradient-5);}.cls-15{fill:url(#linear-gradient-6);}.cls-16{stroke-width:8.04px;}.cls-17{fill:url(#linear-gradient-7);}.cls-18{fill:#fff;}.cls-19{opacity:0.54;mix-blend-mode:soft-light;}</style><clipPath id="clip-path" transform="translate(-1010.5 -175.02)"><rect class="cls-1" x="1246.8" y="334.36" width="1728.98" height="3198.61"/></clipPath><linearGradient id="linear-gradient" x1="1937.58" y1="-224.13" x2="366.36" y2="3474.49" gradientUnits="userSpaceOnUse"><stop offset="0" stop-color="#045b6c"/><stop offset="0.09" stop-color="#2b6676"/><stop offset="0.28" stop-color="#8d818e"/><stop offset="0.47" stop-color="#f39da8"/><stop offset="1" stop-color="#fdbb9b"/></linearGradient><linearGradient id="linear-gradient-2" x1="2085.77" y1="2175.51" x2="2044.55" y2="3247.34" gradientUnits="userSpaceOnUse"><stop offset="0" stop-color="#fe8b5e"/><stop offset="0.25" stop-color="#f89485"/><stop offset="0.47" stop-color="#f39da8"/><stop offset="1" stop-color="#fdbb9b"/></linearGradient><clipPath id="clip-path-2" transform="translate(-1010.5 -175.02)"><path class="cls-1" d="M1194.23,3622c12.87-157.21,73.22-309.41,167-437.12,24.71,11.23,48.23,22.25,53.84,24.07-13.55-14.09-27.3-27.66-40.54-41.73a895.61,895.61,0,0,1,130.83-136.85c20.91,13.55,43.32,25.75,63.9,29.2-1.8-6.47-21.56-30.21-36.47-51.44A839.85,839.85,0,0,1,1637,2938.8c6.76,17,14.06,33.64,23.14,48,.23-4.54.84-35.18,1.79-61.41,61.16-31.4,127.74-54.28,195.28-52,2.21.07,4.41.17,6.62.3a1145.18,1145.18,0,0,1-57.41,178c-33.12,10.56-66.49,24.56-100.4,25l90.19-1.19q-3.46,7.88-7,15.69A1184.82,1184.82,0,0,1,1702,3248.4c-16.18-1.31-29.47-3.3-32.22-7.06q9.49,13,20.23,25a1178.57,1178.57,0,0,1-127.77,156.24c-98.5,101.25-201.34,203.34-348,216.88-5.85.54-12.69.49-16.75-3.3a9.87,9.87,0,0,1-1.51-1.76C1193.65,3630.87,1193.88,3626.23,1194.23,3622Z"/></clipPath><linearGradient id="linear-gradient-3" x1="-581.47" y1="2491.2" x2="-86.02" y2="2922.88" gradientTransform="matrix(-0.9, -0.43, -0.43, 0.9, 2578.55, 629.7)" gradientUnits="userSpaceOnUse"><stop offset="0" stop-color="#fdbb9b"/><stop offset="0.24" stop-color="#cc8975"/><stop offset="0.48" stop-color="#a25d53"/><stop offset="0.69" stop-color="#833d3b"/><stop offset="0.88" stop-color="#712a2c"/><stop offset="1" stop-color="#6a2327"/></linearGradient><linearGradient id="linear-gradient-4" x1="-324.43" y1="2821.16" x2="2.45" y2="2821.16" xlink:href="#linear-gradient-3"/><clipPath id="clip-path-3" transform="translate(-1010.5 -175.02)"><path class="cls-1" d="M1260.6,3621.26c148.69-163.49,246.87-370.8,288-588.91-35.12-14.56-68.9-28.13-76.12-32.12,27.38.4,54.43,1.5,81.5,1.62A1255.22,1255.22,0,0,0,1569.07,2737c-33.87-8.46-67.79-19.76-91-37.53,8.34-4.35,51.54-6.8,87.54-11.82a1177.75,1177.75,0,0,0-28.73-173.05c-23.87,9.33-47.9,17.77-71.27,22.18,4.44-4.57,35.23-34.5,61.19-60.54-26.32-92.66-66.55-182.72-133.42-249.74q-3.29-3.29-6.64-6.5a1604,1604,0,0,0-127.41,229c20.85,44,38.41,91.57,70.37,126.72l-85-93.49q-4.74,11.07-9.33,22.21a1661.76,1661.76,0,0,0-77.68,239.63c16.82,15.32,31.56,27,38,26.25-14.92,1.8-29.93,2.84-44.94,3.18a1650.85,1650.85,0,0,0-37.86,280.23c-9.52,197.68-15.74,400.61,110.6,563.74,5,6.51,11.63,13.46,19.4,14a13.74,13.74,0,0,0,3.25-.14C1252,3630.37,1256.56,3625.71,1260.6,3621.26Z"/></clipPath><linearGradient id="linear-gradient-5" x1="91.67" y1="2171.79" x2="785.84" y2="2776.61" gradientTransform="matrix(0.93, 0.36, -0.36, 0.93, 1679.32, 243.38)" xlink:href="#linear-gradient-3"/><linearGradient id="linear-gradient-6" x1="451.78" y1="2634.09" x2="909.8" y2="2634.09" gradientTransform="matrix(0.93, 0.36, -0.36, 0.93, 1679.32, 243.38)" xlink:href="#linear-gradient-3"/><linearGradient id="linear-gradient-7" x1="2550.4" y1="2431.79" x2="2820.21" y2="3549.55" gradientTransform="matrix(1, 0, 0, 1, 0, 0)" xlink:href="#linear-gradient-3"/></defs><g class="cls-2"><g id="Layer_8" data-name="Layer 8"><g class="cls-3"><rect class="cls-4" x="215.31" width="1806.41" height="3407.86"/><path class="cls-5" d="M1259.58,2442.35c397.24-.56,771.66,68.18,1161.7,124.73,151.37,21.94,996.8-41.12,1089.21,100,30.6,46.73-385.06,803.43-384.08,868.4,3.19,210.89-2021.4,235.91-2027.46,34.37C1091.23,3313.33,1009.35,2590,1259.58,2442.35Z" transform="translate(-1010.5 -175.02)"/><path class="cls-6" d="M1496.11,2112.75c11.16-1.06,21.14-7.49,32.2-9.28,12.42-2,24.35-5.41,36.69-8.53,9.2-2.33,18.7-5.12,27.62-7.44,14.41-3.74,30.21-2.24,45.49-2.24q39,0,78,0c11.82,0,24.8,1.52,36.55.24,10.75-1.18,18.63-4.95,29.63-4.81,22.88.27,46.45-2.14,68.88,2.28,28.49,5.61,59.58,2.29,88.65,2.29,28.13,0,56.26.13,84.39,0,18.67-.07,33.61,1.42,51.48,6.87,9.16,2.79,26.71,2.61,26,15.12,9.56.9,13.27,10.26,21.93,13.63,11.8,4.59,22.83,9.11,34.42,14.76,25.63,12.51,53.12,20.22,80,27.36,14.8,3.93,26.28,4.7,41.6,4.71a195.48,195.48,0,0,1,40.93,4.19c13.91,2.79,32.8,1.35,46.4-1.9,21.6-5.15,45.18-2,67.35-2.27,6.46-.07,10.74.81,16.65,2.28,8.67,2.16,17.43,1.51,26.37,3.18,20.45,3.82,41.23,8.47,61,12.46,13.63,2.75,25.51-2.58,38.39-6.48,14-4.25,28.09-7.95,41.8-11.33,6-1.47,10.55-3.95,16.6-4.88,10.78-1.64,23.23-.09,34.15.07,9.58.14,17.67,3,27,4.29,9.94,1.36,20.44-1.37,30.13.78,43.61,9.68,89.48,13.77,134,21.4,14.33,2.45,28.49,5.12,42.07,9.16,7.85,2.33,15.08,4.35,22.89,7,7.64,2.56,15.9,1.59,23.12,4.22,6,2.19,10,6.19,15.61,8.22,7.54,2.72,15.6,5.92,23.37,8.83,7.4,2.77,15.27,3.1,22,7.77,6.3,4.37,7.88,9.64,16.82,10.94-16.12,27.31-11.53,73-29.54,101-7.85,12.18-17.35,29.71-32.24,32-11.71,1.84-25.75,0-37.81.76-39,2.42-77.74,5.9-116.83,7.34-82.39,3-164.37-.76-246.67-3.07-27.21-.77-54.08-1.39-81.09-4.82-29.44-3.75-58.46-10.19-88-13.07-51.89-5.05-102.1-10.48-154.32-10.07a1020.07,1020.07,0,0,1-194.35-17.22c-54.61-10.11-108.72-21.62-163.64-30.07-31.22-4.8-62.44-9.32-94-11.59-25.45-1.84-51.07.85-76.46-1.84-12-1.27-25.14-1.46-36.81-4.25-11.34-2.71-20.87-8.88-31.26-14-30.67-15.1-60.17-25.41-85.37-49.42-11.1-10.59-22.42-19.21-28.68-33.31-3.8-8.55-8.26-13.38-12.56-21.68-4-7.69-9.07-14.81-12.64-22.93-4.16-9.46-1-17.77-4-27.12C1496.39,2121.61,1498.15,2109.28,1496.11,2112.75Z" transform="translate(-1010.5 -175.02)"/><path class="cls-7" d="M3018.47,2277.45c7.8-44.4-60.63-24.82-82.13-26.82-43-4-81.4-26.49-125.11-28.81-78.65-4.16-159.33.55-238.18.67-39.47.05-65.24-5.44-96.69,13.74-34.35,20.95-78.47,16.44-120.38,14.74-30.82-1.24-52.35-10.28-79.86-21.66-28-11.58-56-10.18-83.2-19.81-13.89-4.92-22.89-15.08-35.63-21.46-25-12.51-51.29-13.89-76.24-26.22-23.88-11.8-43.5-32.8-68.7-42.22-26.81-10-48.47-7.69-78.73-7.32-46.64.58-89.87-4-134.27,10.25-68.72,22.08-135,17.51-206.92,17.51-28.23,0-60-4.44-87.93-1.3-54.77,6.14-96.25,59.16-149.25,76.46-73.66,24-158.74-11.49-231.89,9.36-2.42,24,27.88,36.11,40.79,52.57,15.57,19.88,27.89,47,40.81,68.71,26.87,45.26,18.81,97.61,36.84,140.67,10.89,26,17.67,35.86,44.32,38.87,59.57,6.74,124.66-.58,184.54-.58,104.84,0,202.45,2.16,306.25,14.94,135.52,16.67,276.25,33.53,410.05,61.12,87.84,18.12,184.65,6.38,274.16,6.38,78.18,0,162-9.2,238.38,7.56,83.24,18.27,163.94,29.67,248.52,41.16,19.88,2.71,62.27,16.27,79.77,2.1-14.42-37.8-17.4-65-22.69-103.7-3.75-27.39-11.27-28.26-26.65-51.19-15.81-23.57-15.08-44-12.15-70.48C2969.33,2405.24,2973.54,2354.38,3018.47,2277.45Z" transform="translate(-1010.5 -175.02)"/><path class="cls-5" d="M2285.09,2333.92l19.57,4.1c1.13-5.65,1.92-9.67,2.72-13.68,20.89,4.58,22.82,7,19,27.52-6.86,36.63-14.48,73.12-21.07,109.8-2.9,16.11-3.9,32.55-6.12,48.79-.88,6.4,2.22,8.4,7.62,8.4,9.09,0,12.16,5,12.89,13.44,2.57,30,5.7,59.89,8.33,89.85a39,39,0,0,1-.25,7.66,51.15,51.15,0,0,1,12.27,4.79,51.33,51.33,0,0,1,15-8.44c.91-13.39,1.57-25.71,2.69-38,1.77-19.41,3.88-38.79,6-60,1.75,1.16,7.21,2.76,8,5.6a303.62,303.62,0,0,1,8,40c1.48,12.06.78,24.38,1.62,36.55a21.6,21.6,0,0,1-.41,6.67,47.57,47.57,0,0,1,26.68-9.43c2.42-11.73,5.71-22.26,5.57-32.73-.26-21.17-3.09-42.31-4.53-63.48-.32-4.83.51-9.78,1.12-14.64,1-7.84,1.92-15.71,3.45-23.45,1.25-6.28,2.36-12.9,5.27-18.47,8-15.34,8.61-31.11,5.71-47.72-3.36-19.34-6.33-38.78-8.52-58.28-.57-5,1-10,8.54-12.66,5.16-1.77,10.07-9.87,11.36-15.93,1.93-9.13,1.67-19.11.42-28.47a333.4,333.4,0,0,0-8.62-43.53A38.44,38.44,0,0,0,2406,2222.8c-14-6.68-27.63-14.38-43.2-22.59a50.12,50.12,0,0,0,5.13-2.84c3.32-2.6,6.56-5.3,9.84-8-3.85-1.43-7.7-2.87-11.56-4.28-5.79-2.12-12.52-3-17.23-6.53-15.2-11.48-33-11.29-42.93,1.55-12.77,16.49-10,34.81,6.29,46.8,8.08,6,14.17,13.06,12.42,25.08-1.56,10.76-.33,21.93-.33,32.78-22.89,4.85-22.89,4.85-38,1-9,8.36-8.56,18-4.56,28.74C2283.74,2319.78,2283.78,2325.75,2285.09,2333.92Z" transform="translate(-1010.5 -175.02)"/><path class="cls-8" d="M1997,2604c50.29,25.94,201.82,21.4,258.74,24.9-48.64-122.36-52-180.16-172.34-254.94-97.66-60.69-442.12,5.05-493-117.84a335.4,335.4,0,0,1,67.14-23.46c-148.67-105.73-164.43-215.45-377.21-224-134.64-5.38-82.15-50.56-118,46.78-21.34,57.92,30.1,229.65,28.45,301.62-5.12,223-17.2,197.24,200.61,205.12C1564.4,2568.53,1845.49,2525.86,1997,2604Z" transform="translate(-1010.5 -175.02)"/><g class="cls-9"><path class="cls-10" d="M1863.85,2873.64a1145.18,1145.18,0,0,1-57.41,178c-33.11,10.56-66.49,24.56-100.4,25l90.19-1.19q-3.46,7.88-7,15.69A1184.82,1184.82,0,0,1,1702,3248.4c-16.18-1.31-29.47-3.3-32.22-7.06q9.49,13,20.23,25a1178.57,1178.57,0,0,1-127.77,156.24c-98.5,101.25-201.34,203.34-348,216.88-5.85.54-12.69.49-16.75-3.3,209.47-253.67,424.67-545.24,659.73-762.82C1859.44,2873.41,1861.64,2873.51,1863.85,2873.64Z" transform="translate(-1010.5 -175.02)"/><path class="cls-11" d="M1197.5,3636.16a9.87,9.87,0,0,1-1.51-1.76c-2.34-3.53-2.11-8.17-1.76-12.44,12.87-157.21,73.22-309.41,167-437.12,24.71,11.23,48.23,22.25,53.84,24.07-13.55-14.09-27.3-27.66-40.54-41.73a895.61,895.61,0,0,1,130.83-136.85c20.91,13.55,43.32,25.75,63.9,29.2-1.8-6.47-21.56-30.21-36.47-51.44A839.85,839.85,0,0,1,1637,2938.8c6.76,17,14.06,33.64,23.14,48,.23-4.55.84-35.19,1.79-61.42,61.16-31.4,127.74-54.28,195.28-52C1622.17,3090.92,1407,3382.49,1197.5,3636.16Z" transform="translate(-1010.5 -175.02)"/><path class="cls-12" d="M1862.84,2870.27c-16.35,8.31-30,21.16-43.19,34-176,170.31-328.58,363.3-480.56,555.61L1169.7,3674.19Z" transform="translate(-1010.5 -175.02)"/><path class="cls-12" d="M1566.35,3175.44a418.64,418.64,0,0,1-111.61-129Z" transform="translate(-1010.5 -175.02)"/><path class="cls-12" d="M1512.05,3246a292.27,292.27,0,0,1-119.34-134.09Z" transform="translate(-1010.5 -175.02)"/><path class="cls-12" d="M1603.7,3135.26c20.89,2,41.87-3.21,62.27-8.73q93.4-25.29,184.27-59.56Z" transform="translate(-1010.5 -175.02)"/><path class="cls-12" d="M1580.57,3163.9c93,4.34,184.61-24.61,273.54-54.29Z" transform="translate(-1010.5 -175.02)"/><path class="cls-12" d="M1751.69,2973.27a277.15,277.15,0,0,1,59.78-143.79Z" transform="translate(-1010.5 -175.02)"/><path class="cls-12" d="M1721.49,3004.77c8.2-50.37,23.67-108.43,40-156.88Z" transform="translate(-1010.5 -175.02)"/><path class="cls-12" d="M1453.92,3314.44c26.82,27.3,64.14,42.2,102,48.47s76.63,4.58,115.09,2.81Z" transform="translate(-1010.5 -175.02)"/><path class="cls-12" d="M1434.44,3339.43c61,45.21,140.31,64.93,216.12,53.76Z" transform="translate(-1010.5 -175.02)"/><path class="cls-12" d="M1399.4,3386.63c-34.42-12.61-64.54-35.22-89.33-62.24s-44.52-58.41-61.85-90.87Z" transform="translate(-1010.5 -175.02)"/><path class="cls-12" d="M1354.71,3441.52c28.11,28.81,66.26,46.55,105.92,53.85s80.85,4.61,120.64-3.51Z" transform="translate(-1010.5 -175.02)"/></g><path class="cls-8" d="M2734.61,3551.52c10.46-9.18,13.62-27.27,18.22-39.88,11-30.09,24-56.77,39.89-84.48,7.78-13.58,8.38-18,22.42-20.25,12.66-2.07,38.27,9.75,50.88,14.19,19.67,6.92,24.43,10,42.95-1.34,20.63-12.65,40.78-26.44,66.16-18.07,7.24,2.38,13.22,8.86,20.49,11,8.63,2.57,17.4.32,26.12,2.69,8.18,2.23,14.31,8.46,22.14,11,9.4,3.08,18.25-.13,27.74,1.06,24.16,3,20.57,25.64,20.44,47-.08,12.09,2.85,12.64-8.44,20.27-14.75,10-38.84,8.07-55,17.55-12,7-20.52,13-26.11,25.27-2.59,5.67-2.85,16.29-6.58,21.27-5.92,7.91-4.47,4.48-13.75,6.52-31.67,7-60.78-6.51-89.5-13.69-22-5.48-71.12-18.46-91.18-2.21-10.21,8.26-8.68,26.67-25.81,23.1C2763.7,3570.11,2760.55,3553.92,2734.61,3551.52Z" transform="translate(-1010.5 -175.02)"/><g class="cls-13"><path class="cls-14" d="M1386.75,2220a1604,1604,0,0,0-127.41,229c20.84,44,38.41,91.57,70.37,126.72l-85-93.49q-4.74,11.07-9.33,22.21a1661.76,1661.76,0,0,0-77.68,239.63c16.82,15.32,31.56,27,38,26.25-14.92,1.8-29.93,2.84-44.94,3.18a1650.85,1650.85,0,0,0-37.86,280.23c-9.52,197.68-15.74,400.61,110.6,563.74,5,6.51,11.63,13.46,19.4,14,59.52-457.06,152.37-956.21,150.46-1405Q1390.11,2223.23,1386.75,2220Z" transform="translate(-1010.5 -175.02)"/><path class="cls-15" d="M1242.93,3631.49a13.74,13.74,0,0,0,3.25-.14c5.85-1,10.38-5.64,14.42-10.09,148.69-163.49,246.87-370.8,288-588.91-35.12-14.56-68.9-28.13-76.12-32.12,27.38.4,54.43,1.5,81.5,1.62A1254.56,1254.56,0,0,0,1569.07,2737c-33.87-8.46-67.79-19.76-91-37.53,8.34-4.35,51.54-6.8,87.54-11.83a1177.83,1177.83,0,0,0-28.73-173c-23.87,9.33-47.9,17.77-71.27,22.19,4.44-4.58,35.23-34.51,61.19-60.55-26.32-92.66-66.55-182.72-133.42-249.74C1395.3,2675.28,1302.45,3174.43,1242.93,3631.49Z" transform="translate(-1010.5 -175.02)"/><path class="cls-16" d="M1391.17,2217.85c7.12,24.67,7,50.91,6.51,76.7-6.14,343.07-57.9,683.84-109.55,1023.36q-28.79,189.21-57.56,378.41Z" transform="translate(-1010.5 -175.02)"/><path class="cls-16" d="M1362.11,2813.25a586.58,586.58,0,0,0,238.85-9.06Z" transform="translate(-1010.5 -175.02)"/><path class="cls-16" d="M1341.78,2936.31c81.47,24.45,170.65,22.33,251.41-6Z" transform="translate(-1010.5 -175.02)"/><path class="cls-16" d="M1367.55,2736.58c-22-19.44-36.75-45.94-50.6-72.11q-63.4-119.83-115.17-245.66Z" transform="translate(-1010.5 -175.02)"/><path class="cls-16" d="M1360.33,2787.66c-93.34-91.07-151.29-212.6-205.93-332Z" transform="translate(-1010.5 -175.02)"/><path class="cls-16" d="M1392,2430.15a388.31,388.31,0,0,0,90.11-198.69Z" transform="translate(-1010.5 -175.02)"/><path class="cls-16" d="M1388.57,2491.19c43.75-56.55,88.42-127.91,122.38-191Z" transform="translate(-1010.5 -175.02)"/><path class="cls-16" d="M1327.25,3061.29c-53.6-1.37-104.55-25.34-147.15-58.1s-77.95-74.1-112.92-115.18Z" transform="translate(-1010.5 -175.02)"/><path class="cls-16" d="M1320.29,3105.13c-104.66-19.27-200.66-81.61-261.7-169.93Z" transform="translate(-1010.5 -175.02)"/><path class="cls-16" d="M1305.44,3186.14c45.83,23.2,97.78,32.43,149.16,32s102.38-10.25,152.2-23.53Z" transform="translate(-1010.5 -175.02)"/><path class="cls-16" d="M1292,3284.4c-56.38-1.25-111-23.36-156.43-57s-82-78.39-111.74-126.9Z" transform="translate(-1010.5 -175.02)"/></g><path class="cls-17" d="M2747.81,3404.63a429.35,429.35,0,0,0-119.34-67.09c-37.71-13.84-77.3-22.36-114.34-37.88s-72.55-39.52-91-75.22-14.91-84.61,15.91-110.37c13.85-11.58,31.65-17.56,49.51-20.16,32.77-4.79,75.67-4.93,86.39-36.27,5.66-16.55-1.76-34.9-12.35-48.83-20.07-26.42-50.43-42.61-79.66-58.31s-59.36-32.65-78.29-59.9-22.89-67.9,0-91.9c21.67-22.68,57.19-22.65,86.72-33.25,55.38-19.86,89.8-85.43,74.69-142.3-14.09-53.07-64.67-102.69-44.71-153.85,10.62-27.2,33.12-69.64,59.7-81.73,31.39-14.29,75.42.9,103.85,20.41,18,12.35,26.87,34.06,33.28,54.93a464.27,464.27,0,0,1,18.9,173c14.92,11.75,37.23,1.66,50.52-11.91s24.26-31.15,42.27-37.2c18.26-6.13,39.11,2.2,52.06,16.47s19.17,33.41,22.62,52.36A227.78,227.78,0,0,1,2886,2794c-12.47,26-29.74,49.24-46.17,72.89-16.65,24-31,60.64-7.93,78.55,18.9,14.68,46.23,2.1,65.71-11.8s43.39-29.84,65.34-20.31c13,5.65,20.89,18.87,26.89,31.72,32.57,69.78,34.48,150.18,24.89,226.59s-30,151.13-40,227.47c-5.81,44-8.78,90.36-32.11,128.12-20.19,32.66-88.28,74.51-114.79,28.75-11.8-20.35-6-54.75-18-78.49C2795.36,3449,2772.6,3424.37,2747.81,3404.63Z" transform="translate(-1010.5 -175.02)"/><path class="cls-18" d="M2593.72,2462.84l128,438.54,64,219.27c20.95,71.81,43.49,143.38,62,215.88A922.28,922.28,0,0,1,2876.39,3584c-.09,4.42,6.78,4.42,6.87,0a914.64,914.64,0,0,0-21.15-216.6c-16.18-73.16-39.52-144.86-60.5-216.74l-128.52-440.41L2600.35,2461c-1.24-4.24-7.87-2.43-6.63,1.83Z" transform="translate(-1010.5 -175.02)"/><path class="cls-18" d="M2722.58,2879.27q25.92-23.45,51.84-46.87c15-13.59,30-27.39,42.08-43.72,24.73-33.37,32.17-75.16,38-115.32.63-4.33-6-6.19-6.63-1.83-5.81,40-13.07,81.59-38,114.64-12,15.85-26.82,29.21-41.49,42.49l-50.61,45.75c-3.28,3,1.59,7.82,4.86,4.86Z" transform="translate(-1010.5 -175.02)"/><path class="cls-18" d="M2847.28,3313.06c16-51,58.24-86.67,87.18-130a188.68,188.68,0,0,0,29.91-75.74c2.29-14.15,3.45-28.45,4.45-42.73,1.07-15.42,2.29-30.72-1-46-.94-4.32-7.57-2.49-6.63,1.83,3.41,15.68,1.67,31.76.53,47.61s-2.59,32-5.83,47.7c-5.59,27.1-17.8,51-33.93,73.26-28.74,39.67-66.21,74.28-81.29,122.21-1.33,4.23,5.3,6,6.63,1.83Z" transform="translate(-1010.5 -175.02)"/><path class="cls-18" d="M2728.73,2933c-26,2-52.44,3.78-77.72-4-20.16-6.18-38.4-17.18-55.84-28.8-33.25-22.14-65.59-48.37-106-55.34-4.32-.75-6.18,5.87-1.83,6.62,42.73,7.37,76.07,36.54,111.47,59.29,16.53,10.63,34.05,20.26,53.06,25.64,25.09,7.11,51.22,5.4,76.9,3.44,4.38-.33,4.42-7.2,0-6.87Z" transform="translate(-1010.5 -175.02)"/><path class="cls-18" d="M2637.85,2602.45A150.48,150.48,0,0,0,2673.9,2501c-.11-4.41-7-4.43-6.87,0a143.15,143.15,0,0,1-34,96.64c-2.85,3.35,2,8.23,4.86,4.86Z" transform="translate(-1010.5 -175.02)"/><path class="cls-18" d="M2817.09,3216.73c-42.05-33.79-102.45-24.94-152.5-23.24-32.09,1.09-64.23,2.9-96.34,2.92-15.69,0-31.47-.63-47-3.23a172.36,172.36,0,0,1-19.83-4.51,74.8,74.8,0,0,1-9.66-3.19c-6.6-2.95-6.94-4.16-7-11.08,0-4.42-6.9-4.43-6.88,0l.07,10.49a3.36,3.36,0,0,0,1.7,3c52.51,23.28,113.81,14.93,169.52,13,29-1,58.24-3.07,87.28-2.13,26.82.88,54.27,5.59,75.73,22.83,3.41,2.75,8.3-2.09,4.86-4.86Z" transform="translate(-1010.5 -175.02)"/><g class="cls-19"><path class="cls-18" d="M1111.72,899.78h707c.14-19.4.64-35.19-6.09-54-5.81-16.25-15-32.93-33.87-43.24s-49.7-11.37-64.74,1.66c-12.36,10.71-21,31-39.25,25.77-5.88-1.69-9.37-5.87-12.27-9.82-38.77-52.74-51.87-116.36-111.28-158.68-16.47-11.73-41.18-21.79-62.52-14.88-15,4.85-22.69,16.4-28.68,27.16a434.57,434.57,0,0,0-29.45,64.66c-4.53,12.62-13.32,28.29-31.92,28.33-12.33,0-21.81-7.35-33.14-10.74-19.81-5.94-43.64,1.34-57.28,13s-19.42,26.75-24.85,41.34c-28.63-25.15-89.28-19.56-122.29,2.81S1122.88,868.59,1111.72,899.78Z" transform="translate(-1010.5 -175.02)"/><path class="cls-18" d="M2438.76,1696.39h580.77c.12-13.56.53-24.59-5-37.74-4.78-11.36-12.33-23-27.83-30.22s-40.83-8-53.18,1.16c-10.15,7.48-17.29,21.66-32.24,18-4.83-1.18-7.7-4.1-10.08-6.86-31.85-36.86-42.61-81.32-91.41-110.89-13.53-8.2-33.83-15.23-51.36-10.4-12.31,3.39-18.64,11.46-23.56,19a285,285,0,0,0-24.19,45.18c-3.72,8.82-10.94,19.78-26.22,19.8-10.12,0-17.92-5.13-27.22-7.5-16.27-4.15-35.85.94-47.05,9.09s-15.95,18.7-20.42,28.89c-23.51-17.58-73.33-13.67-100.45,2S2447.93,1674.6,2438.76,1696.39Z" transform="translate(-1010.5 -175.02)"/><path class="cls-18" d="M2081.42,1705.55h580.77c.12-13.55.53-24.59-5-37.74-4.77-11.36-12.33-23-27.83-30.22s-40.82-7.94-53.18,1.16c-10.15,7.49-17.29,21.67-32.24,18-4.83-1.18-7.69-4.1-10.08-6.86-31.84-36.86-42.61-81.32-91.41-110.89-13.53-8.19-33.83-15.22-51.35-10.4-12.32,3.39-18.64,11.46-23.56,19a284.68,284.68,0,0,0-24.2,45.19c-3.72,8.82-10.93,19.77-26.22,19.8-10.12,0-17.92-5.14-27.22-7.51-16.27-4.15-35.85.94-47.05,9.09s-15.95,18.7-20.41,28.89c-23.52-17.57-73.34-13.66-100.46,2S2090.58,1683.76,2081.42,1705.55Z" transform="translate(-1010.5 -175.02)"/></g></g></g></g></svg>