<svg id="Layer_1" data-name="Layer 1" xmlns="http://www.w3.org/2000/svg" viewBox="0 0 583.03 1046.91"><defs><style>.cls-1{fill:#eef0ef;}.cls-2{fill:#cfb49f;}.cls-3{fill:#c15123;}.cls-4{fill:#324b4f;}.cls-5{fill:#b9754e;}</style></defs><rect class="cls-1" y="0.33" width="583.03" height="1040.73"/><path class="cls-2" d="M555.65,927.56c-12.32,37.89-17.91,81.68,3.39,114.29,18.09,27.7,39.28,22.4,190.53,95.27,43.16,20.79,61.08,30.69,80.23,50.14,35.72,36.29,36.61,66.12,56.55,84V927.56Z" transform="translate(-303.32 -927.56)"/><path class="cls-3" d="M453.75,1523.2c17.21-40.47,12-90.87,10-110.31-.93-9.05-3.7-31.68-25.07-95.26-22.62-67.33-33.93-101-45.12-115.33-20.06-25.7-53.53-44-90.26-53.35v478.41C365.43,1618.31,430.67,1577.46,453.75,1523.2Z" transform="translate(-303.32 -927.56)"/><path class="cls-4" d="M844.84,1904.27c-44-76-10.66-165.33-30.08-170.48-22.31-5.92-44.27,117.76-125.35,140.39-50.12,14-76.75-23.47-120.34-5-37,15.69-66.39,63.33-70.6,105.3H886.35v-23.72A154,154,0,0,1,844.84,1904.27Z" transform="translate(-303.32 -927.56)"/><path class="cls-5" d="M405.9,1434.76c24-30.47,87.86-111.39,85.87-222.48-2.16-120-77.93-224.28-148.13-281.89-1.19-1-2.39-1.88-3.58-2.83h-9.38c3.09,2.38,6.18,4.82,9.25,7.35,69.18,56.78,143.87,159.5,146,277.47,2,109-60.93,188.74-84.61,218.76-27.67,35.08-61.44,66.44-98,92.94v7C341.66,1503.86,377.07,1471.31,405.9,1434.76Z" transform="translate(-303.32 -927.56)"/><path class="cls-5" d="M842.41,1747.2c-15.09,22.41-28.8,40.38-40.89,56.23-29.78,39.07-49.46,64.88-54.85,110.52a198.8,198.8,0,0,0,2.39,60.52h6a193,193,0,0,1-2.54-59.83c5.21-44.06,24.5-69.36,53.69-107.66,12.14-15.92,25.9-34,41.11-56.53,11.86-17.59,25.4-37.72,39.07-59.6v-11.12C871.06,1704.67,855.67,1727.53,842.41,1747.2Z" transform="translate(-303.32 -927.56)"/><path class="cls-5" d="M827.33,1246c-34.57-61-41.94-111-47.87-151.1-6.07-41.13-10.86-73.62-43.29-95.57-38.3-25.93-80.77-14.34-121.85-3.13-36.83,10-74.89,20.45-109.1,2.95-23.91-12.23-42.14-36.18-54.7-71.58h-6q19.65,57,58.05,76.79c36.23,18.52,75.41,7.82,113.31-2.52,41.62-11.36,80.94-22.1,117,2.33,30.3,20.51,34.7,50.33,40.79,91.58,6,40.63,13.45,91.19,48.56,153.13,22.72,40.08,44.7,63,64.11,79.64v-7.78C868.27,1304.64,848.1,1282.63,827.33,1246Z" transform="translate(-303.32 -927.56)"/></svg>